# xmcd
#
# Track frame offsets:
#	150
#	15512
#	33003
#	57010
#	73040
#	84463
#	99757
#	117654
#	132883
#	150909
#	166838
#	184785
#
# Disc length: 2693 seconds
# Revision: 0
# Processed by: cddbd v1.5.2PL0 Copyright (c) Steve Scherf et al.
# Submitted via: dBpowerAMP V12.0
#
DISCID=850a830c
DTITLE=Daniel Crabtree - The Gospel Road
DYEAR=2016
DGENRE=Country Gospel
TTITLE0=The Gospel Road
TTITLE1=Holdin' On
TTITLE2=The Day I Realized I Was a Sinner
TTITLE3=Oh Blessed Lord, Carry Me
TTITLE4=Dof't Take Your Eyes Off Of Jesus
TTITLE5=The Stained Glass Window
TTITLE6=All Over Me
TTITLE7=Elijah
TTITLE8=Jesus, Won't You Guide Me
TTITLE9=The Scarlet Red Line
TTITLE10=Ya Gotta Love God
TTITLE11=Time's Gettin' Short
EXTD=
EXTT0=
EXTT1=
EXTT2=
EXTT3=
EXTT4=
EXTT5=
EXTT6=
EXTT7=
EXTT8=
EXTT9=
EXTT10=
EXTT11=
PLAYORDER=
